# xmcd
#
# Track frame offsets:
#	150
#	14637
#	23615
#	33942
#	46655
#	62777
#	75112
#	86220
#	108687
#	128935
#	142247
#	155205
#	176705
#	197365
#	215035
#	231885
#	248947
#	268617
#
# Disc length: 3779 seconds
#
# Revision: 2
# Processed by: cddbd v1.5.2PL0 Copyright (c) Steve Scherf et al.
# Submitted via: EZCDAudioConverter 2.1.7.1
#
DISCID=000ec112
DTITLE=Mystic Tide - Solid Sound/Solid Ground
DYEAR=1967
DGENRE=
TTITLE0=I Wouldn't Care
TTITLE1=Why
TTITLE2=Stay Away
TTITLE3=I Search For New Love
TTITLE4=Mystic Eyes
TTITLE5=Frustration
TTITLE6=Running Through The Night
TTITLE7=Psychedelic Journey (Part 1)
TTITLE8=Psychedelic Journey (Part 2)
TTITLE9=Mystery Ship
TTITLE10=You Won't Look Back
TTITLE11=You Know It's True
TTITLE12=It's Simple Sister
TTITLE13=Mystery Ship
TTITLE14=Frustration
TTITLE15=Silver Rails - Going Home
TTITLE16=See The Light
TTITLE17=Solid Ground
EXTD=
EXTT0=
EXTT1=
EXTT2=
EXTT3=
EXTT4=
EXTT5=
EXTT6=
EXTT7=
EXTT8=
EXTT9=
EXTT10=
EXTT11=
EXTT12=
EXTT13=
EXTT14=
EXTT15=
EXTT16=
EXTT17=
PLAYORDER=
